<svg width="157" height="142" viewBox="0 0 157 142" fill="none" xmlns="http://www.w3.org/2000/svg">
  <path d="M156.268 16.0404C156.268 7.48218 149.289 0.519775 140.709 0.519775C133.328 0.519775 127.135 5.67552 125.548 12.5653H86.8273C84.1618 12.5653 81.9933 14.7284 81.9933 17.3873V29.6884H75.9595C75.1129 28.2874 73.577 27.3452 71.821 27.3452H30.4492C27.9961 21.9831 22.574 18.245 16.2895 18.245C7.7101 18.245 0.730469 25.2074 0.730469 33.7656C0.730469 39.8269 4.2335 45.0839 9.32433 47.638V78.5805C9.32433 80.7222 10.732 82.5397 12.672 83.1669V103.609C12.672 107.154 15.5634 110.038 19.1173 110.038H53.4325V112.024C53.4325 114.683 55.601 116.846 58.2665 116.846H63.3853V131.634H52.3146C49.6143 131.634 47.4174 133.826 47.4174 136.519C47.4174 139.213 49.6143 141.404 52.3146 141.404H102.609C105.309 141.404 107.506 139.213 107.506 136.519C107.506 133.826 105.31 131.634 102.609 131.634H91.5382V116.846H96.6567C99.3222 116.846 101.491 114.683 101.491 112.024V110.038H135.806C139.36 110.038 142.251 107.154 142.251 103.609V55.8654H142.663C145.328 55.8654 147.497 53.7022 147.497 51.0434V30.0038C152.685 27.4841 156.268 22.1724 156.268 16.0404ZM3.95345 33.7656C3.95345 26.9803 9.48739 21.4597 16.2898 21.4597C23.0922 21.4597 28.6261 26.98 28.6261 33.7656C28.6261 40.5512 23.0922 46.0715 16.2898 46.0715C9.48739 46.0715 3.95345 40.5512 3.95345 33.7656ZM12.547 48.8294C13.7465 49.1261 14.9994 49.2862 16.2895 49.2862C24.8688 49.2862 31.8484 42.3238 31.8484 33.7656C31.8484 32.6668 31.7315 31.5947 31.513 30.5599H71.821C72.7095 30.5599 73.4323 31.281 73.4323 32.1673V78.5805C73.4323 79.4668 72.7095 80.1879 71.821 80.1879H56.7573C56.0673 80.1879 55.4541 80.626 55.2317 81.2777L52.5205 89.2312C52.2688 89.9699 51.604 90.0274 51.4061 90.0274C51.2085 90.0274 50.5437 89.9699 50.2917 89.2312L47.5805 81.2777C47.3584 80.626 46.7448 80.1879 46.0549 80.1879H14.1586C13.2701 80.1879 12.5473 79.4668 12.5473 78.5805L12.547 48.8294ZM89.9268 134.849H102.609C103.533 134.849 104.284 135.598 104.284 136.519C104.284 137.44 103.533 138.19 102.609 138.19H52.3146C51.3913 138.19 50.6401 137.44 50.6401 136.519C50.6401 135.598 51.3913 134.849 52.3146 134.849H80.0655C80.9553 134.849 81.6768 134.129 81.6768 133.242C81.6768 132.354 80.9553 131.634 80.0655 131.634H66.608V116.847H88.3158V133.242C88.3155 134.129 89.0371 134.849 89.9268 134.849ZM98.268 112.025C98.268 112.911 97.5452 113.632 96.6567 113.632H58.2668C57.3783 113.632 56.6555 112.911 56.6555 112.025V110.038H98.268V112.025ZM144.274 51.0434C144.274 51.9297 143.552 52.6507 142.663 52.6507H109.329C108.64 52.6507 108.026 53.0889 107.804 53.7405L105.093 61.694C104.841 62.4327 104.176 62.4903 103.978 62.4903C103.78 62.4903 103.116 62.4327 102.864 61.694L100.153 53.7405C99.9306 53.0889 99.317 52.6507 98.627 52.6507H86.8273C85.9388 52.6507 85.216 51.9297 85.216 51.0434V31.6111C85.216 30.7235 84.4944 30.0038 83.6046 30.0038C82.7148 30.0038 81.9933 30.7235 81.9933 31.6111V51.0434C81.9933 53.7022 84.1618 55.8654 86.8273 55.8654H97.473L99.8127 62.7291C100.429 64.5371 102.064 65.705 103.978 65.705C105.892 65.705 107.527 64.5371 108.144 62.7291L110.483 55.8654H139.029V103.609C139.029 105.382 137.583 106.824 135.806 106.824H19.1173C17.3404 106.824 15.8947 105.382 15.8947 103.609V83.4029H44.9012L47.2408 90.2666C47.8573 92.0746 49.4922 93.2425 51.4061 93.2425C53.3204 93.2425 54.9552 92.0746 55.5717 90.2666L57.9114 83.4029H71.821C74.4864 83.4029 76.655 81.2397 76.655 78.5808V32.9031H83.604C84.2144 32.9031 84.7725 32.5582 85.0458 32.0136C85.1576 31.7905 85.216 31.5446 85.216 31.2948V17.3877C85.216 16.5014 85.9388 15.7803 86.8273 15.7803H125.157C125.156 15.8671 125.15 15.9533 125.15 16.0407C125.15 24.5989 132.13 31.5613 140.709 31.5613C141.936 31.5613 143.129 31.4144 144.274 31.1453V51.0434ZM140.71 28.3463C133.908 28.3463 128.373 22.826 128.373 16.0404C128.373 9.25477 133.907 3.73448 140.71 3.73448C147.512 3.73448 153.046 9.25477 153.046 16.0404C153.046 22.826 147.512 28.3463 140.71 28.3463Z" fill="#3A85F4" />
</svg>